<?xml version="1.0" standalone="no"?><!DOCTYPE svg PUBLIC "-//W3C//DTD SVG 1.1//EN" "http://www.w3.org/Graphics/SVG/1.1/DTD/svg11.dtd"><svg t="1570965410292" class="icon" viewBox="0 0 1024 1024" version="1.1" xmlns="http://www.w3.org/2000/svg" p-id="3316" xmlns:xlink="http://www.w3.org/1999/xlink" width="200" height="200"><defs><style type="text/css"></style></defs><path d="M914.717782 594.539267c-13.524105-32.997589-30.850905-62.683152-49.189714-86.910006 14.965449-11.469422 25.36153-35.604275 25.36153-63.78716 0-39.038969-19.81082-70.62588-44.313676-70.932549 2.116016-14.996116 3.588028-30.176233 3.588028-45.755021 0-180.658731-147.569142-327.06253-329.577217-327.06253-182.008075 0-329.577217 146.403799-329.577217 327.06253 0 17.357468 1.77868 34.316266 4.385367 50.968394-16.376127 10.518748-27.937549 35.941611-27.937549 65.749842 0 17.204133 3.986698 32.78292 10.39608 45.080349-21.190831 22.846843-41.890991 52.041736-58.788455 85.77533-46.705695 93.166054-39.744308 187.313449-10.948085 202.646901 14.781448 7.850727 53.268412-17.388135 91.111372-63.265823 6.010713 54.188419 31.49491 103.654135 70.71788 143.42911-64.707167 19.136148-107.702167 56.825773-101.936789 95.159403 7.176056 48.453708 89.118023 79.488615 183.05075 69.399204 68.9392-7.452058 124.967634-35.113605 147.231806-68.356529 5.796045 0.245335 11.530756 0.705339 17.418801 0.705339 10.089411 0 20.056155-0.49067 29.869564-1.257343 23.858851 31.617578 76.636593 57.899115 140.393086 66.025844 91.111372 11.622757 169.955982-18.154807 176.120029-66.485848 4.845371-38.088295-36.984286-76.26859-99.483436-96.47808 36.830952-37.812293 61.272474-84.241985 68.571197-135.087712 33.641594 46.031023 68.019193 75.900587 85.989999 71.944557C938.392632 788.384766 953.634084 689.361334 914.717782 594.539267z" p-id="3317"></path></svg>